{
  "accessors": [
    {
      "bufferView": 2,
      "componentType": 5126,
      "count": 5642,
      "max": [
        2.845033884048462,
        1.4423401355743408,
        1.5957120656967163
      ],
      "min": [
        -1.014830470085144,
        -0.9463059306144714,
        -2.2697577476501465
      ],
      "type": "VEC3"
    },
    {
      "bufferView": 2,
      "byteOffset": 67704,
      "componentType": 5126,
      "count": 5642,
      "max": [
        0.9994052648544312,
        1.0,
        0.9995274543762207
      ],
      "min": [
        -0.9994052648544312,
        -1.0,
        -0.9995318651199341
      ],
      "type": "VEC3"
    },
    {
      "bufferView": 3,
      "componentType": 5126,
      "count": 5642,
      "max": [
        0.9995872378349304,
        0.9999375939369202,
        0.9999995231628418,
        1.0
      ],
      "min": [
        -0.9972145557403564,
        -0.9731200933456421,
        -0.9995328783988953,
        1.0
      ],
      "type": "VEC4"
    },
    {
      "bufferView": 1,
      "componentType": 5126,
      "count": 5642,
      "max": [
        0.9899829626083374,
        0.9895848631858826
      ],
      "min": [
        0.003772854106500745,
        0.00554453581571579
      ],
      "type": "VEC2"
    },
    {
      "bufferView": 1,
      "byteOffset": 45136,
      "componentType": 5126,
      "count": 5642,
      "max": [
        0.9815233945846558,
        0.9870351552963257
      ],
      "min": [
        0.0,
        0.0
      ],
      "type": "VEC2"
    },
    {
      "bufferView": 0,
      "componentType": 5125,
      "count": 18624,
      "type": "SCALAR"
    }
  ],
  "asset": {
    "extras": {
      "author": "¡Jacques (https://sketchfab.com/iJacques)",
      "license": "CC-BY-4.0 (http://creativecommons.org/licenses/by/4.0/)",
      "source": "https://sketchfab.com/3d-models/sliced-apple-3502a77a4acd44868bd79839d243f2ae",
      "title": "Sliced apple"
    },
    "generator": "Sketchfab-12.63.0",
    "version": "2.0"
  },
  "bufferViews": [
    {
      "buffer": 0,
      "byteLength": 74496,
      "name": "floatBufferViews",
      "target": 34963
    },
    {
      "buffer": 0,
      "byteLength": 90272,
      "byteOffset": 74496,
      "byteStride": 8,
      "name": "floatBufferViews",
      "target": 34962
    },
    {
      "buffer": 0,
      "byteLength": 135408,
      "byteOffset": 164768,
      "byteStride": 12,
      "name": "floatBufferViews",
      "target": 34962
    },
    {
      "buffer": 0,
      "byteLength": 90272,
      "byteOffset": 300176,
      "byteStride": 16,
      "name": "floatBufferViews",
      "target": 34962
    }
  ],
  "buffers": [
    {
      "byteLength": 390448,
      "uri": "scene.bin"
    }
  ],
  "images": [
    {
      "uri": "textures/Apple_Bake_baseColor.png"
    },
    {
      "uri": "textures/Apple_Bake_metallicRoughness.png"
    },
    {
      "uri": "textures/Apple_Bake_normal.png"
    }
  ],
  "materials": [
    {
      "doubleSided": true,
      "name": "Apple_Bake",
      "normalTexture": {
        "index": 2,
        "scale": 0.781656229271079
      },
      "pbrMetallicRoughness": {
        "baseColorTexture": {
          "index": 0
        },
        "metallicFactor": 0.0,
        "metallicRoughnessTexture": {
          "index": 1
        },
        "roughnessFactor": 0.5300839022270538
      }
    }
  ],
  "meshes": [
    {
      "name": "Object_0",
      "primitives": [
        {
          "attributes": {
            "NORMAL": 1,
            "POSITION": 0,
            "TANGENT": 2,
            "TEXCOORD_0": 3,
            "TEXCOORD_1": 4
          },
          "indices": 5,
          "material": 0,
          "mode": 4
        }
      ]
    }
  ],
  "nodes": [
    {
      "children": [
        1
      ],
      "matrix": [
        1.0,
        0.0,
        0.0,
        0.0,
        0.0,
        2.220446049250313e-16,
        -1.0,
        0.0,
        0.0,
        1.0,
        2.220446049250313e-16,
        0.0,
        0.0,
        0.0,
        0.0,
        1.0
      ],
      "name": "Sketchfab_model"
    },
    {
      "children": [
        2
      ],
      "name": "root"
    },
    {
      "children": [
        3
      ],
      "matrix": [
        1.0,
        0.0,
        0.0,
        0.0,
        0.0,
        2.220446049250313e-16,
        1.0,
        0.0,
        0.0,
        -1.0,
        2.220446049250313e-16,
        0.0,
        0.0,
        0.0,
        0.0,
        1.0
      ],
      "name": "GLTF_SceneRootNode"
    },
    {
      "children": [
        4
      ],
      "matrix": [
        1.0,
        0.0,
        0.0,
        0.0,
        0.0,
        1.0,
        0.0,
        0.0,
        0.0,
        0.0,
        1.0,
        0.0,
        0.0,
        -0.061518289148807526,
        0.0,
        1.0
      ],
      "name": "Apples_4"
    },
    {
      "mesh": 0,
      "name": "Object_4"
    }
  ],
  "samplers": [
    {
      "magFilter": 9729,
      "minFilter": 9987,
      "wrapS": 10497,
      "wrapT": 10497
    }
  ],
  "scene": 0,
  "scenes": [
    {
      "name": "Sketchfab_Scene",
      "nodes": [
        0
      ]
    }
  ],
  "textures": [
    {
      "sampler": 0,
      "source": 0
    },
    {
      "sampler": 0,
      "source": 1
    },
    {
      "sampler": 0,
      "source": 2
    }
  ]
}
